<svg width="1600" height="900" viewBox="0 0 1600 900" xmlns="http://www.w3.org/2000/svg">
  <defs>
    <linearGradient id="g" x1="0" y1="0" x2="1" y2="1">
      <stop offset="0" stop-color="#34d399"/>
      <stop offset="0.55" stop-color="#6366f1"/>
      <stop offset="1" stop-color="#d946ef"/>
    </linearGradient>
    <radialGradient id="r" cx="50%" cy="45%" r="70%">
      <stop offset="0" stop-color="rgba(255,255,255,0.12)"/>
      <stop offset="1" stop-color="rgba(255,255,255,0)"/>
    </radialGradient>
    <filter id="soft" x="-30%" y="-30%" width="160%" height="160%">
      <feGaussianBlur stdDeviation="26"/>
    </filter>
  </defs>

  <rect width="1600" height="900" rx="72" fill="#07070a"/>
  <path d="M-50 160 C 300 10, 560 10, 980 190 C 1320 340, 1500 270, 1750 120 L 1750 -60 L -50 -60 Z" fill="url(#g)" opacity="0.22"/>
  <path d="M-50 900 C 350 700, 630 690, 980 820 C 1260 920, 1450 880, 1750 740 L 1750 980 L -50 980 Z" fill="url(#g)" opacity="0.18"/>

  <circle cx="840" cy="420" r="520" fill="url(#r)"/>
  <circle cx="1180" cy="300" r="260" fill="url(#g)" opacity="0.10" filter="url(#soft)"/>
  <circle cx="520" cy="620" r="320" fill="url(#g)" opacity="0.10" filter="url(#soft)"/>

  <g transform="translate(120,170)">
    <rect x="0" y="0" width="220" height="220" rx="54" fill="rgba(255,255,255,0.05)" stroke="rgba(255,255,255,0.14)"/>
    <path d="M64 48h24v60l56-60h34l-66 72 72 76h-36l-60-64v64H64V48z" fill="url(#g)"/>
    <path d="M150 66c-12 22-34 44-66 66" stroke="url(#g)" stroke-width="8" stroke-linecap="round" opacity="0.30"/>
  </g>

  <g transform="translate(380,220)">
    <text x="0" y="110" font-family="ui-sans-serif, system-ui, -apple-system, Segoe UI, Roboto, Helvetica, Arial" font-size="120" font-weight="800" fill="white" letter-spacing="-2">
      KryptaFlow
    </text>
    <text x="0" y="168" font-family="ui-sans-serif, system-ui, -apple-system, Segoe UI, Roboto, Helvetica, Arial" font-size="28" font-weight="600" fill="rgba(255,255,255,0.70)">
      Explorer-first EVM chain " KFL token " Community-driven
    </text>
    <text x="0" y="218" font-family="ui-sans-serif, system-ui, -apple-system, Segoe UI, Roboto, Helvetica, Arial" font-size="22" font-weight="500" fill="rgba(255,255,255,0.55)">
      Official links: kryptaflow.com
    </text>
  </g>
</svg>

