<svg xmlns="http://www.w3.org/2000/svg" width="1000" height="300" viewBox="0 0 1000 300" fill="none">
  <defs>
    <radialGradient id="glowE" cx="0" cy="0" r="1" gradientUnits="userSpaceOnUse" gradientTransform="translate(220 90) rotate(35) scale(460 360)">
      <stop stop-color="#34D399" stop-opacity="0.28"/>
      <stop offset="1" stop-color="#000000" stop-opacity="0"/>
    </radialGradient>
    <radialGradient id="glowI" cx="0" cy="0" r="1" gradientUnits="userSpaceOnUse" gradientTransform="translate(560 160) rotate(20) scale(520 380)">
      <stop stop-color="#6366F1" stop-opacity="0.22"/>
      <stop offset="1" stop-color="#000000" stop-opacity="0"/>
    </radialGradient>
    <radialGradient id="glowF" cx="0" cy="0" r="1" gradientUnits="userSpaceOnUse" gradientTransform="translate(860 200) rotate(-10) scale(520 420)">
      <stop stop-color="#D946EF" stop-opacity="0.18"/>
      <stop offset="1" stop-color="#000000" stop-opacity="0"/>
    </radialGradient>
    <linearGradient id="strokeGrad" x1="0" y1="0" x2="1" y2="0">
      <stop stop-color="#34D399"/>
      <stop offset="0.5" stop-color="#6366F1"/>
      <stop offset="1" stop-color="#D946EF"/>
    </linearGradient>
    <filter id="blur" x="-20%" y="-20%" width="140%" height="140%">
      <feGaussianBlur stdDeviation="10"/>
    </filter>
  </defs>

  <rect width="1000" height="300" fill="#000000"/>
  <rect width="1000" height="300" fill="url(#glowE)"/>
  <rect width="1000" height="300" fill="url(#glowI)"/>
  <rect width="1000" height="300" fill="url(#glowF)"/>

  <g opacity="0.08">
    <path d="M0 60H1000M0 120H1000M0 180H1000M0 240H1000" stroke="#FFFFFF" stroke-width="1"/>
    <path d="M80 0V300M160 0V300M240 0V300M320 0V300M400 0V300M480 0V300M560 0V300M640 0V300M720 0V300M800 0V300M880 0V300" stroke="#FFFFFF" stroke-width="1"/>
  </g>

  <g transform="translate(720 42)">
    <circle cx="188" cy="108" r="74" fill="rgba(255,255,255,0.04)" stroke="rgba(255,255,255,0.10)" stroke-width="1.2"/>
    <circle cx="188" cy="108" r="52" fill="rgba(0,0,0,0.35)" stroke="rgba(255,255,255,0.12)" stroke-width="1.2"/>
    <circle cx="188" cy="108" r="36" fill="rgba(255,255,255,0.03)"/>
    <circle cx="188" cy="108" r="22" fill="rgba(52,211,153,0.10)"/>

    <path d="M70 158C118 128 144 122 182 122C220 122 250 138 306 170" stroke="url(#strokeGrad)" stroke-width="3" stroke-linecap="round" opacity="0.75"/>
    <path d="M86 132C130 106 152 100 188 100C224 100 252 112 300 140" stroke="rgba(255,255,255,0.14)" stroke-width="2" stroke-linecap="round"/>
    <circle cx="94" cy="128" r="4" fill="#34D399"/>
    <circle cx="300" cy="140" r="4" fill="#D946EF"/>
    <circle cx="182" cy="122" r="4" fill="#6366F1"/>

    <circle cx="188" cy="108" r="86" fill="rgba(99,102,241,0.10)" filter="url(#blur)" opacity="0.6"/>
  </g>

  <g transform="translate(64 96)">
    <circle cx="10" cy="12" r="4" fill="#34D399"/>
    <text x="26" y="18" font-size="44" font-family="ui-sans-serif, system-ui, -apple-system, Segoe UI, Roboto, Arial" font-weight="700" fill="#FFFFFF" letter-spacing="-0.5">
      KryptaFlow
    </text>
    <text x="26" y="54" font-size="16" font-family="ui-sans-serif, system-ui, -apple-system, Segoe UI, Roboto, Arial" font-weight="600" fill="rgba(255,255,255,0.70)">
      KFL on BSC " 0% tax " LP lock 8 months
    </text>
    <text x="26" y="82" font-size="13" font-family="ui-sans-serif, system-ui, -apple-system, Segoe UI, Roboto, Arial" font-weight="500" fill="rgba(255,255,255,0.55)">
      Official: kryptaflow.com  "  Telegram: t.me/kryptaflow  "  X: x.com/kryptaflow
    </text>
  </g>
</svg>

