<svg xmlns="http://www.w3.org/2000/svg" width="1920" height="384" viewBox="0 0 1920 384" fill="none">
  <defs>
    <radialGradient id="gE" cx="0" cy="0" r="1" gradientUnits="userSpaceOnUse" gradientTransform="translate(520 70) rotate(32) scale(980 600)">
      <stop stop-color="#34D399" stop-opacity="0.26"/>
      <stop offset="1" stop-color="#000000" stop-opacity="0"/>
    </radialGradient>
    <radialGradient id="gI" cx="0" cy="0" r="1" gradientUnits="userSpaceOnUse" gradientTransform="translate(980 240) rotate(10) scale(1180 720)">
      <stop stop-color="#6366F1" stop-opacity="0.20"/>
      <stop offset="1" stop-color="#000000" stop-opacity="0"/>
    </radialGradient>
    <radialGradient id="gF" cx="0" cy="0" r="1" gradientUnits="userSpaceOnUse" gradientTransform="translate(1520 260) rotate(-8) scale(1180 820)">
      <stop stop-color="#D946EF" stop-opacity="0.18"/>
      <stop offset="1" stop-color="#000000" stop-opacity="0"/>
    </radialGradient>
    <linearGradient id="strokeGrad" x1="0" y1="0" x2="1" y2="0">
      <stop stop-color="#34D399"/>
      <stop offset="0.5" stop-color="#6366F1"/>
      <stop offset="1" stop-color="#D946EF"/>
    </linearGradient>
    <filter id="blur" x="-20%" y="-20%" width="140%" height="140%">
      <feGaussianBlur stdDeviation="14"/>
    </filter>
  </defs>

  <rect width="1920" height="384" fill="#000000"/>
  <rect width="1920" height="384" fill="url(#gE)"/>
  <rect width="1920" height="384" fill="url(#gI)"/>
  <rect width="1920" height="384" fill="url(#gF)"/>

  <!-- Subtle circuit lines -->
  <g opacity="0.10" stroke="rgba(255,255,255,0.9)" stroke-width="1">
    <path d="M60 300H560C620 300 640 260 700 260H1020C1080 260 1100 220 1160 220H1600" opacity="0.22"/>
    <path d="M140 120H520C600 120 620 160 700 160H1040C1120 160 1140 120 1220 120H1760" opacity="0.18"/>
    <path d="M240 56H720C792 56 820 96 892 96H1180C1248 96 1280 140 1348 140H1860" opacity="0.14"/>
  </g>

  <!-- Right orb motif -->
  <g transform="translate(1300 36)">
    <circle cx="440" cy="160" r="128" fill="rgba(255,255,255,0.035)" stroke="rgba(255,255,255,0.10)" stroke-width="1.2"/>
    <circle cx="440" cy="160" r="92" fill="rgba(0,0,0,0.35)" stroke="rgba(255,255,255,0.12)" stroke-width="1.2"/>
    <circle cx="440" cy="160" r="64" fill="rgba(255,255,255,0.03)"/>
    <circle cx="440" cy="160" r="40" fill="rgba(52,211,153,0.10)"/>

    <path d="M230 252C314 192 360 180 430 180C500 180 560 212 660 270" stroke="url(#strokeGrad)" stroke-width="4" stroke-linecap="round" opacity="0.70"/>
    <path d="M260 206C334 156 372 144 440 144C508 144 566 168 642 214" stroke="rgba(255,255,255,0.14)" stroke-width="2.4" stroke-linecap="round"/>
    <circle cx="270" cy="202" r="5" fill="#34D399"/>
    <circle cx="642" cy="214" r="5" fill="#D946EF"/>
    <circle cx="430" cy="180" r="5" fill="#6366F1"/>

    <circle cx="440" cy="160" r="150" fill="rgba(99,102,241,0.10)" filter="url(#blur)" opacity="0.6"/>
  </g>

  <!-- Center-safe text block (avoid cropping) -->
  <g transform="translate(140 132)">
    <circle cx="12" cy="14" r="5" fill="#34D399"/>
    <text x="32" y="22" font-size="64" font-family="ui-sans-serif, system-ui, -apple-system, Segoe UI, Roboto, Arial" font-weight="800" fill="#FFFFFF" letter-spacing="-0.8">
      KryptaFlow
    </text>
    <text x="32" y="66" font-size="20" font-family="ui-sans-serif, system-ui, -apple-system, Segoe UI, Roboto, Arial" font-weight="600" fill="rgba(255,255,255,0.72)">
      Launch coming soon " BSC " KFL/USDT " 0% tax " LP lock 8 months
    </text>
    <text x="32" y="98" font-size="16" font-family="ui-sans-serif, system-ui, -apple-system, Segoe UI, Roboto, Arial" font-weight="500" fill="rgba(255,255,255,0.56)">
      Official: kryptaflow.com  "  Telegram: t.me/kryptaflow  "  X: x.com/kryptaflow
    </text>
  </g>
</svg>

