<svg width="1500" height="500" viewBox="0 0 1500 500" xmlns="http://www.w3.org/2000/svg">
  <defs>
    <linearGradient id="g" x1="0" y1="0" x2="1" y2="1">
      <stop offset="0" stop-color="#34d399"/>
      <stop offset="0.55" stop-color="#6366f1"/>
      <stop offset="1" stop-color="#d946ef"/>
    </linearGradient>
    <radialGradient id="r" cx="55%" cy="40%" r="75%">
      <stop offset="0" stop-color="rgba(255,255,255,0.12)"/>
      <stop offset="1" stop-color="rgba(255,255,255,0)"/>
    </radialGradient>
    <filter id="soft" x="-30%" y="-30%" width="160%" height="160%">
      <feGaussianBlur stdDeviation="20"/>
    </filter>
  </defs>

  <rect width="1500" height="500" rx="56" fill="#07070a"/>
  <path d="M-60 120 C 280 0, 520 0, 860 120 C 1140 220, 1290 200, 1600 80 L 1600 -40 L -60 -40 Z" fill="url(#g)" opacity="0.22"/>
  <path d="M-60 520 C 340 360, 620 350, 950 450 C 1200 520, 1360 500, 1600 400 L 1600 560 L -60 560 Z" fill="url(#g)" opacity="0.18"/>
  <circle cx="860" cy="220" r="360" fill="url(#r)"/>
  <circle cx="1140" cy="160" r="180" fill="url(#g)" opacity="0.10" filter="url(#soft)"/>
  <circle cx="480" cy="360" r="220" fill="url(#g)" opacity="0.10" filter="url(#soft)"/>

  <g transform="translate(88,110)">
    <rect x="0" y="0" width="170" height="170" rx="42" fill="rgba(255,255,255,0.05)" stroke="rgba(255,255,255,0.14)"/>
    <path d="M50 36h20v48l44-48h26L88 94l56 60h-28L70 104v50H50V36z" fill="url(#g)"/>
    <path d="M116 50c-10 18-28 36-54 54" stroke="url(#g)" stroke-width="6" stroke-linecap="round" opacity="0.30"/>
  </g>

  <g transform="translate(290,152)">
    <text x="0" y="86" font-family="ui-sans-serif, system-ui, -apple-system, Segoe UI, Roboto, Helvetica, Arial" font-size="88" font-weight="800" fill="white" letter-spacing="-2">
      KryptaFlow
    </text>
    <text x="0" y="132" font-family="ui-sans-serif, system-ui, -apple-system, Segoe UI, Roboto, Helvetica, Arial" font-size="22" font-weight="600" fill="rgba(255,255,255,0.70)">
      Explorer-first EVM chain " KFL token " Community-driven
    </text>
    <text x="0" y="170" font-family="ui-sans-serif, system-ui, -apple-system, Segoe UI, Roboto, Helvetica, Arial" font-size="18" font-weight="500" fill="rgba(255,255,255,0.55)">
      Official: kryptaflow.com
    </text>
  </g>
</svg>

